# xmcd
#
# Track frame offsets: 
#        150
#        27871
#        68172
#        114545
#        130632
#        153462
#        179766
#
# Disc length: 2794 seconds
#
# Revision: 0
# Processed by: cddbd v1.5.2PL0 Copyright (c) Steve Scherf et al.
# Submitted via: ExactAudioCopy v1.0b1
#
DISCID=5a0ae807
DTITLE=Willie Dixon - Montreux 
DYEAR=1983
DGENRE=Blues
TTITLE0=It Don't Make Sense
TTITLE1=Wang Dang Doodle
TTITLE2=Rock This House
TTITLE3=Got My Mojo Working
TTITLE4=Spoonful
TTITLE5=Jam - Band Intros
TTITLE6=Hoochi Coochie Man
EXTD=
EXTT0=
EXTT1=
EXTT2=
EXTT3=
EXTT4=
EXTT5=
EXTT6=
PLAYORDER=
